<svg preserveAspectRatio="none" width="100%" height="100%" overflow="visible" style="display: block;" viewBox="0 0 26 26" fill="none" xmlns="http://www.w3.org/2000/svg">
<path id="Union" d="M13 0C20.179 0 26 5.82098 26 13C26 20.179 20.179 26 13 26C5.82098 26 0 20.179 0 13C0 5.82098 5.82098 0 13 0ZM13 2.20536C7.03973 2.20536 2.20536 7.03973 2.20536 13C2.20536 18.9603 7.03973 23.7946 13 23.7946C18.9603 23.7946 23.7946 18.9603 23.7946 13C23.7946 7.03973 18.9603 2.20536 13 2.20536ZM13.6964 7.42857C13.8241 7.42857 13.9286 7.53304 13.9286 7.66071V12.0714H18.3393C18.467 12.0714 18.5714 12.1759 18.5714 12.3036V13.6964C18.5714 13.8241 18.467 13.9286 18.3393 13.9286H13.9286V18.3393C13.9286 18.467 13.8241 18.5714 13.6964 18.5714H12.3036C12.1759 18.5714 12.0714 18.467 12.0714 18.3393V13.9286H7.66071C7.53304 13.9286 7.42857 13.8241 7.42857 13.6964V12.3036C7.42857 12.1759 7.53304 12.0714 7.66071 12.0714H12.0714V7.66071C12.0714 7.53304 12.1759 7.42857 12.3036 7.42857H13.6964Z" fill="var(--fill-0, white)"/>
</svg>
