<svg preserveAspectRatio="none" width="100%" height="100%" overflow="visible" style="display: block;" viewBox="0 0 26 26" fill="none" xmlns="http://www.w3.org/2000/svg">
<g id="Group 8">
<circle id="Ellipse 6" cx="13" cy="13" r="13" fill="var(--fill-0, #226BF3)"/>
<path id="Union" d="M13.2004 7C13.3447 7.00012 13.4891 7.05925 13.591 7.16113L18.2404 11.8105C18.4529 12.023 18.4529 12.3803 18.2404 12.5928C18.13 12.7032 17.9856 12.7538 17.8498 12.7539C17.7053 12.7539 17.5687 12.7033 17.4582 12.5928L13.7521 8.88574V18.5C13.7521 18.8059 13.5062 19.0613 13.2004 19.0615C12.8944 19.0615 12.6477 18.8148 12.6476 18.5088V8.88672L8.94158 12.5928C8.72908 12.8053 8.37186 12.8053 8.15936 12.5928C7.94689 12.3803 7.94687 12.023 8.15936 11.8105L12.8088 7.16113C12.9108 7.05913 13.0559 7 13.2004 7Z" fill="var(--fill-0, white)" stroke="var(--stroke-0, white)"/>
</g>
</svg>
