<svg preserveAspectRatio="none" width="100%" height="100%" overflow="visible" style="display: block;" viewBox="0 0 66.6609 11.3364" fill="none" xmlns="http://www.w3.org/2000/svg">
<g id="Right Side">
<g id="Battery">
<path id="Rectangle" opacity="0.35" d="M44.9999 0.502857H61.6659C62.8625 0.502857 63.8329 1.47323 63.8329 2.66985V8.66985C63.8327 9.86632 62.8624 10.8359 61.6659 10.8359H44.9999C43.8034 10.8359 42.8331 9.86632 42.8329 8.66985V2.66985C42.8329 1.47323 43.8033 0.502857 44.9999 0.502857Z" stroke="var(--stroke-0, white)"/>
<path id="Combined Shape" opacity="0.4" d="M65.3329 3.66952V7.66952C66.1376 7.33075 66.6609 6.54266 66.6609 5.66952C66.6609 4.79639 66.1376 4.0083 65.3329 3.66952" fill="var(--fill-0, white)"/>
<path id="Rectangle_2" d="M44.3329 3.33619C44.3329 2.59981 44.9299 2.00286 45.6662 2.00286H60.9996C61.7359 2.00286 62.3329 2.59981 62.3329 3.33619V8.00286C62.3329 8.73924 61.7359 9.33619 60.9996 9.33619H45.6662C44.9299 9.33619 44.3329 8.73924 44.3329 8.00286V3.33619Z" fill="var(--fill-0, white)"/>
</g>
<path id="Wifi" d="M27.4537 8.40063C28.7292 7.32178 30.5971 7.32182 31.8726 8.40063C31.9368 8.45867 31.9744 8.54069 31.9762 8.6272C31.9779 8.71362 31.9441 8.79711 31.8824 8.85767L29.8853 10.8733C29.8269 10.9324 29.7468 10.9659 29.6637 10.9661C29.5805 10.9661 29.5005 10.9324 29.442 10.8733L27.4439 8.85767C27.3823 8.79708 27.3484 8.7136 27.3502 8.6272C27.352 8.54069 27.3895 8.45862 27.4537 8.40063ZM24.7887 5.71118C27.5368 3.1552 31.7925 3.15504 34.5406 5.71118C34.6026 5.77105 34.6383 5.85355 34.6392 5.9397C34.6401 6.02582 34.6061 6.109 34.5455 6.17017L33.3902 7.33716C33.2713 7.45603 33.0796 7.45866 32.9576 7.34302C32.0552 6.5259 30.881 6.07352 29.6637 6.07349C28.447 6.07399 27.2735 6.52635 26.3717 7.34302C26.2496 7.45896 26.0571 7.45628 25.9381 7.33716L24.7838 6.17017C24.723 6.10908 24.6892 6.02588 24.69 5.9397C24.6909 5.85355 24.7267 5.77103 24.7887 5.71118ZM22.1226 3.02954C26.3377 -1.00992 32.9876 -1.00978 37.2027 3.02954C37.2637 3.08951 37.2989 3.17157 37.2994 3.25708C37.2999 3.34258 37.2659 3.42489 37.2057 3.4856L36.0494 4.65259C35.9303 4.77219 35.7367 4.77335 35.6158 4.65552C34.01 3.12904 31.8792 2.2778 29.6637 2.27759C27.4476 2.27758 25.3157 3.12871 23.7096 4.65552C23.5887 4.77357 23.395 4.77249 23.276 4.65259L22.1197 3.4856C22.0596 3.42485 22.0264 3.34256 22.0269 3.25708C22.0275 3.17155 22.0616 3.08948 22.1226 3.02954Z" fill="var(--fill-0, white)"/>
<path id="Mobile Signal" d="M2 7.0031C2.55208 7.00334 3 7.45097 3 8.0031V10.0031C2.99982 10.5551 2.55197 11.0029 2 11.0031H1C0.447824 11.0031 0.000176046 10.5552 0 10.0031V8.0031C0 7.45082 0.447715 7.0031 1 7.0031H2ZM6.66602 5.0031C7.2183 5.0031 7.66602 5.45082 7.66602 6.0031V10.0031C7.66584 10.5552 7.21819 11.0031 6.66602 11.0031H5.66602C5.11393 11.003 4.66619 10.5552 4.66602 10.0031V6.0031C4.66602 5.45088 5.11382 5.00321 5.66602 5.0031H6.66602ZM11.333 2.66912C11.8851 2.66918 12.3328 3.11702 12.333 3.66912V10.0031C12.3328 10.5552 11.8851 11.003 11.333 11.0031H10.333C9.78083 11.0031 9.33318 10.5552 9.33301 10.0031V3.66912C9.33318 3.11698 9.78083 2.66912 10.333 2.66912H11.333ZM16 0.336109C16.5521 0.33635 17 0.783973 17 1.33611V10.0031C16.9998 10.5551 16.552 11.0029 16 11.0031H15C14.4478 11.0031 14.0002 10.5552 14 10.0031V1.33611C14 0.783824 14.4477 0.336109 15 0.336109H16Z" fill="var(--fill-0, white)"/>
</g>
</svg>
