<svg preserveAspectRatio="none" width="100%" height="100%" overflow="visible" style="display: block;" viewBox="0 0 24 24" fill="none" xmlns="http://www.w3.org/2000/svg">
<path id="Vector" d="M17.8504 0H6.14956C2.75324 0 0 2.7833 0 6.2167V17.7833C0 21.2167 2.75324 24 6.14956 24H17.8504C21.2468 24 24 21.2167 24 17.7833V6.2167C24 2.7833 21.2468 0 17.8504 0ZM10.0227 6.25846C10.0227 5.15119 10.9104 4.25378 12.0057 4.25378C13.101 4.25378 13.9887 5.15119 13.9887 6.25846C13.9887 7.36573 13.101 8.26314 12.0057 8.26314C10.9104 8.26314 10.0227 7.36573 10.0227 6.25846ZM10.0227 11.8366C10.0227 10.7293 10.9104 9.83189 12.0057 9.83189C13.101 9.83189 13.9887 10.7293 13.9887 11.8366C13.9887 12.9438 13.101 13.8413 12.0057 13.8413C10.9104 13.8413 10.0227 12.9438 10.0227 11.8366ZM4.53401 6.25846C4.53401 5.15119 5.42172 4.25378 6.51703 4.25378C7.61234 4.25378 8.50006 5.15119 8.50006 6.25846C8.50006 7.36573 7.61234 8.26314 6.51703 8.26314C5.42172 8.26314 4.53401 7.36573 4.53401 6.25846ZM4.53401 11.8366C4.53401 10.7293 5.42172 9.83189 6.51703 9.83189C7.61234 9.83189 8.50006 10.7293 8.50006 11.8366C8.50006 12.9438 7.61234 13.8413 6.51703 13.8413C5.42172 13.8413 4.53401 12.9438 4.53401 11.8366ZM17.4837 18.3542C17.4837 19.3618 16.6757 20.1782 15.6794 20.1782H8.32095C7.32427 20.1782 6.51668 19.3614 6.51668 18.3542C6.51668 17.3467 7.32463 16.5302 8.32095 16.5302H15.6794C16.6761 16.5302 17.4837 17.347 17.4837 18.3542ZM19.4777 11.8366C19.4777 12.9438 18.59 13.8413 17.4947 13.8413C16.3994 13.8413 15.5117 12.9438 15.5117 11.8366C15.5117 10.7293 16.3994 9.83189 17.4947 9.83189C18.59 9.83189 19.4777 10.7293 19.4777 11.8366ZM19.4777 6.25846C19.4777 7.36573 18.59 8.26314 17.4947 8.26314C16.3994 8.26314 15.5117 7.36573 15.5117 6.25846C15.5117 5.15119 16.3994 4.25378 17.4947 4.25378C18.59 4.25378 19.4777 5.15119 19.4777 6.25846Z" fill="var(--fill-0, white)"/>
</svg>
